<?xml version="1.0" encoding="utf-8"?>
<!-- Generator: Adobe Illustrator 27.9.0, SVG Export Plug-In . SVG Version: 6.00 Build 0)  -->
<svg version="1.1" id="Layer_1" xmlns="http://www.w3.org/2000/svg" xmlns:xlink="http://www.w3.org/1999/xlink" x="0px" y="0px"
	 viewBox="0 0 45 28" style="enable-background:new 0 0 45 28;" xml:space="preserve">
<style type="text/css">
	.st01323455524{clip-path:url(#SVGID_00000140735099416898898730000004274937293163545766_);}
	.st13455ytrtegdfdfs{clip-path:url(#SVGID_00000056407028166476402730000000432920337947363473_);}
	.st2435ytregfdfsgsgh{fill:#2B2926;}
	.st3546ytegfrfdsaswd{fill:#2B2926;}
</style>
<g>
	<defs>
		<rect id="SVGID_1_" x="0.6" y="0.95" width="43.61" height="26.09"/>
	</defs>
	<clipPath id="SVGID_00000003788270658687005440000000949204479895908241_">
		<use xlink:href="#SVGID_1_"  style="overflow:visible;"/>
	</clipPath>
	<g style="clip-path:url(#SVGID_00000003788270658687005440000000949204479895908241_);">
		<g>
			<defs>
				<rect id="SVGID_00000087378443312550564550000004757376283640360069_" x="0.6" y="0.95" width="43.61" height="26.09"/>
			</defs>
			<clipPath id="SVGID_00000058588240601890670740000014150507564746177418_">
				<use xlink:href="#SVGID_00000087378443312550564550000004757376283640360069_"  style="overflow:visible;"/>
			</clipPath>
			<g style="clip-path:url(#SVGID_00000058588240601890670740000014150507564746177418_);">
				<path class="st2435ytregfdfsgsgh" d="M34.33,2.07c-1.12,0.9-1.58,2.33-1.16,3.68c0.35,1.13,1.11,1.89,2.19,2.33c0.69,0.28,1.41,0.48,2.12,0.71
					c0.61,0.2,1.23,0.37,1.8,0.69c1.03,0.59,0.94,2,0.13,2.59c-0.3,0.22-0.64,0.37-1,0.44c-1.47,0.29-2.89,0.09-4.28-0.43
					c-0.24-0.09-0.47-0.2-0.72-0.28c-0.35-0.11-0.52,0.02-0.54,0.38c-0.01,0.27-0.01,0.54,0,0.81c0.01,0.29,0.13,0.54,0.4,0.68
					c0.22,0.12,0.45,0.25,0.69,0.34c1.35,0.48,2.74,0.7,4.17,0.55c0.87-0.09,1.7-0.32,2.45-0.78c1.64-1.01,2.15-2.72,1.69-4.28
					c-0.31-1.07-1.08-1.74-2.09-2.12c-0.87-0.33-1.77-0.6-2.66-0.89c-0.51-0.17-1-0.36-1.45-0.65c-0.93-0.58-0.88-2.15,0.24-2.61
					c0.16-0.07,0.33-0.13,0.5-0.17c1.19-0.24,2.35-0.15,3.5,0.23c0.32,0.11,0.62,0.25,0.95,0.35c0.26,0.08,0.42-0.04,0.44-0.31
					c0.02-0.29,0.01-0.59,0.01-0.88c0-0.12-0.03-0.23-0.08-0.34c-0.06-0.1-0.14-0.19-0.24-0.25C41.2,1.72,41,1.59,40.78,1.52
					c-0.51-0.16-1.02-0.3-1.54-0.41c-0.45-0.09-0.91-0.11-1.37-0.16h-0.15C37.56,0.97,37.39,0.98,37.23,1
					C36.16,1.08,35.18,1.39,34.33,2.07z"/>
				<path class="st2435ytregfdfsgsgh" d="M14.38,2.26c1,3.3,2.01,6.6,3.01,9.9c0.16,0.53,0.33,1.06,0.51,1.59c0.1,0.29,0.32,0.44,0.63,0.44
					c0.45,0,0.9,0.01,1.34,0c0.58-0.01,0.71-0.12,0.86-0.67c0.01-0.03,0.01-0.06,0.02-0.09c0.5-2.09,1-4.18,1.5-6.27
					c0.24-0.99,0.47-1.97,0.71-2.96l0.04,0c0.01,0.04,0.03,0.08,0.04,0.12c0.39,1.62,0.78,3.25,1.17,4.87
					c0.35,1.45,0.69,2.89,1.04,4.34c0.13,0.52,0.31,0.67,0.84,0.68c0.36,0.01,0.71,0,1.07,0c0.7,0,0.84-0.1,1.05-0.77
					c1.18-3.76,2.35-7.52,3.52-11.28c0.04-0.13,0.07-0.26,0.08-0.39c0.03-0.3-0.08-0.42-0.38-0.42c-0.39,0-0.78,0-1.18,0
					c-0.69,0-0.83,0.11-1.01,0.79c-0.74,2.84-1.47,5.69-2.21,8.53c-0.09,0.35-0.18,0.69-0.27,1.03c-0.04-0.05-0.07-0.11-0.09-0.17
					c-0.62-2.62-1.24-5.24-1.85-7.86c-0.13-0.57-0.27-1.14-0.41-1.71c-0.11-0.45-0.29-0.59-0.75-0.6c-0.44-0.01-0.88-0.01-1.33,0
					c-0.44,0.01-0.6,0.13-0.72,0.56c-0.11,0.38-0.19,0.77-0.28,1.16c-0.66,2.8-1.32,5.6-1.98,8.4c-0.01,0.04-0.03,0.08-0.05,0.15
					c-0.02-0.06-0.03-0.08-0.03-0.09c-0.69-2.7-1.38-5.41-2.06-8.11c-0.14-0.55-0.29-1.1-0.45-1.64c-0.09-0.29-0.3-0.42-0.6-0.42
					c-0.52,0-1.03-0.01-1.55,0c-0.27,0-0.4,0.16-0.35,0.43C14.29,1.95,14.33,2.11,14.38,2.26z"/>
				<path class="st3546ytegfrfdsaswd" d="M39.94,20.53c-0.21-0.07-0.41-0.01-0.61,0.07c-3.99,1.67-8.14,2.73-12.44,3.14
					c-1.07,0.1-2.14,0.16-3.2,0.21c-0.66,0.03-1.32,0.01-1.98-0.03c-1-0.05-2-0.1-3-0.18c-0.84-0.07-1.68-0.18-2.51-0.3
					c-1.48-0.23-2.94-0.53-4.38-0.91c-2.65-0.69-5.22-1.61-7.68-2.8c-0.95-0.46-1.87-0.98-2.8-1.46c-0.13-0.07-0.27-0.11-0.41-0.12
					c-0.05,0-0.1,0.01-0.15,0.03s-0.08,0.06-0.11,0.1c-0.03,0.04-0.04,0.09-0.05,0.14c0,0.05,0.01,0.1,0.03,0.15
					c0.05,0.12,0.13,0.22,0.23,0.3c0.72,0.6,1.43,1.22,2.18,1.78c2.42,1.82,5.05,3.26,7.89,4.32c2.89,1.09,5.89,1.73,8.97,1.96
					c0.82,0.06,1.64,0.07,2.67,0.11c0.79-0.05,1.78-0.09,2.78-0.18c0.86-0.08,1.73-0.2,2.58-0.34c1.84-0.32,3.65-0.79,5.41-1.42
					c2.23-0.79,4.34-1.81,6.28-3.17c0.2-0.14,0.41-0.28,0.58-0.45C40.53,21.15,40.39,20.68,39.94,20.53z"/>
				<path class="st2435ytregfdfsgsgh" d="M5.07,14.37c2.09,0.48,3.9-0.06,5.38-1.64c0.06-0.06,0.11-0.12,0.18-0.2c0.07,0.15,0.12,0.27,0.2,0.38
					c0.23,0.36,0.46,0.74,0.72,1.08c0.25,0.33,0.54,0.35,0.89,0.13c0.28-0.18,0.55-0.36,0.83-0.55c0.36-0.24,0.41-0.45,0.22-0.84
					c-0.24-0.47-0.48-0.94-0.55-1.47c-0.04-0.35-0.08-0.7-0.09-1.06c-0.01-1.46,0.01-2.92-0.01-4.38c0-0.49-0.04-0.98-0.12-1.46
					c-0.27-1.69-1.29-2.78-2.96-3.16C8.23,0.86,6.69,0.93,5.19,1.39c-0.52,0.16-1.03,0.39-1.54,0.6C3.36,2.11,3.24,2.35,3.24,2.66
					c0,0.21,0,0.43,0,0.64c0,0.59,0.12,0.68,0.68,0.49c0.46-0.16,0.91-0.34,1.37-0.48c1.09-0.34,2.19-0.45,3.32-0.23
					c0.95,0.18,1.55,0.72,1.74,1.68c0.06,0.32,0.1,0.65,0.12,0.98c0.02,0.42,0,0.84,0,1.27c-0.05,0-0.09,0-0.12-0.01
					C9.72,6.9,9.09,6.76,8.45,6.68C7.53,6.56,6.61,6.55,5.69,6.77C4.54,7.04,3.57,7.6,2.93,8.63c-0.52,0.83-0.62,1.75-0.51,2.71
					C2.6,12.86,3.58,14.03,5.07,14.37z M4.99,9.96c0.2-0.91,0.86-1.36,1.72-1.54c0.8-0.17,1.6-0.12,2.4-0.02
					c0.41,0.05,0.82,0.14,1.23,0.21c0.12,0.02,0.18,0.07,0.17,0.2c-0.01,0.15,0,0.31,0,0.46l0.02,0c-0.04,0.35-0.07,0.71-0.12,1.06
					c-0.14,0.81-0.63,1.37-1.31,1.77c-0.79,0.47-1.73,0.65-2.64,0.51c-0.89-0.13-1.46-0.78-1.52-1.7
					C4.92,10.59,4.92,10.26,4.99,9.96z"/>
				<path class="st3546ytegfrfdsaswd" d="M43.33,17.5c-1.08-0.28-2.18-0.29-3.28-0.18c-0.88,0.09-1.75,0.27-2.55,0.64c-0.44,0.2-0.84,0.47-1.25,0.72
					c-0.11,0.07-0.19,0.21-0.12,0.35c0.07,0.15,0.21,0.15,0.35,0.13c0.59-0.06,1.18-0.12,1.77-0.18c0.84-0.09,1.67-0.13,2.51-0.06
					c0.32,0.03,0.64,0.1,0.95,0.19c0.27,0.08,0.47,0.26,0.5,0.55c0.03,0.27,0.03,0.54,0.01,0.8c-0.13,0.94-0.44,1.84-0.76,2.73
					c-0.2,0.55-0.42,1.08-0.62,1.63c-0.04,0.1-0.02,0.29,0.04,0.34c0.07,0.05,0.25,0.03,0.35-0.01c0.14-0.07,0.27-0.19,0.39-0.31
					c0.8-0.75,1.36-1.67,1.79-2.67c0.48-1.12,0.78-2.28,0.83-3.5v-0.05C44.22,17.87,44.1,17.7,43.33,17.5z"/>
			</g>
		</g>
	</g>
</g>
</svg>
