<?xml version="1.0" encoding="UTF-8"?>
<svg id="Layer_1" data-name="Layer 1" xmlns="http://www.w3.org/2000/svg" version="1.1" viewBox="0 0 56 56">
  <defs>
    <style>
      .cls-1546ghgfjftewr {
        fill: #2B2926;
        stroke-width: 0px;
      }
    </style>
  </defs>
  <path class="cls-1546ghgfjftewr" d="M28,0c-.42,0-.84.01-1.26.03l-5.73,15.74h4.99c2.97,0,4.57,2.28,3.55,5.08l-7.07,19.41h-5.93l7.58-20.81h-4.46l-7.58,20.81h-5.94L20.44,1.03C8.65,4.33,0,15.16,0,28s9.17,24.31,21.5,27.24l14.36-39.47h10.92c2.97,0,4.57,2.28,3.55,5.08l-6.21,17.05c-.47,1.3-1.99,2.36-3.37,2.36h-7.87l-5.72,15.73c.14,0,.28,0,.42,0h.64c15.36-.12,27.78-12.6,27.78-27.99h0C56,12.54,43.47,0,28,0Z"/>
  <polygon class="cls-1546ghgfjftewr" points="40.48 19.44 34.23 36.57 38.7 36.57 44.94 19.44 40.48 19.44"/>
</svg>
