<?xml version="1.0" encoding="UTF-8"?>
<svg id="a" xmlns="http://www.w3.org/2000/svg" viewBox="0 0 106.01 30">
  <path d="m11.48,4.96v8.46H3.69V4.96H0v20.19h3.69v-8.18h7.78v8.18h3.7V4.96h-3.7,0Zm15.52,13.66c0,1.69-1.37,3.05-3.06,3.05s-3.06-1.37-3.06-3.05v-8.65h-3.5v8.65c0,3.61,2.94,6.54,6.56,6.54s6.55-2.92,6.55-6.54v-8.65h-3.49s0,8.65,0,8.65Zm25.97-7.75c0-1.78,1.17-2.34,2.46-2.34,1.04,0,2.41.79,3.31,1.75l2.29-2.7c-1.15-1.55-3.47-2.61-5.37-2.61-3.8,0-6.55,2.23-6.55,5.91,0,6.84,8.37,4.67,8.37,8.49,0,1.18-1.15,2.23-2.46,2.23-2.07,0-2.74-1.01-3.7-2.09l-2.55,2.64c1.63,2,3.64,3.01,6.05,3.01,3.61,0,6.52-2.25,6.52-5.77,0-7.58-8.37-5.23-8.37-8.52Zm51.8,11.06c-2.07,0-2.66-.9-2.66-2.27v-6.06h3.22v-3.07h-3.22v-4.05l-3.55,1.6v12.35c0,3.16,2.18,4.75,5.18,4.75.47,0,.94-.03,1.4-.11l.87-3.18c-.39.03-.84.05-1.23.05M40.34,10.07c-1.74,0-2.95.5-4.12,1.65v-6.65h-3.51v12.32c0,4.61,3.34,7.77,7.09,7.77,4.16,0,7.83-3.21,7.83-7.54s-3.37-7.54-7.29-7.54h0Zm-.02,11.57c-2.2,0-3.98-1.78-3.98-3.97s1.78-3.97,3.98-3.97,3.98,1.78,3.98,3.97-1.78,3.97-3.98,3.97Zm38.14-4.2c0-4.34-3.65-7.54-7.83-7.54-3.75,0-7.09,3.15-7.09,7.77v12.33h3.51v-6.66c1.17,1.15,2.38,1.65,4.12,1.65,3.92,0,7.29-3.27,7.29-7.54h0Zm-3.32-.04c0,2.2-1.78,3.97-3.98,3.97s-3.98-1.78-3.98-3.97,1.78-3.97,3.98-3.97,3.98,1.78,3.98,3.97Z" fill="#2B2926" stroke-width="0"/>
  <path d="m89.81,9.72v-3.52c.95-.44,1.56-1.4,1.57-2.45v-.08c0-1.5-1.22-2.71-2.72-2.71h-.08c-1.5,0-2.72,1.22-2.72,2.71v.08c0,1.05.61,2,1.57,2.45v3.52c-1.34.21-2.6.76-3.66,1.61l-9.67-7.51c.07-.25.11-.51.11-.76,0-1.69-1.37-3.06-3.06-3.06s-3.06,1.36-3.07,3.04c-.01,1.69,1.36,3.05,3.05,3.06.53,0,1.05-.14,1.51-.41l9.53,7.4c-1.75,2.64-1.7,6.08.12,8.67l-2.9,2.89c-.23-.07-.48-.11-.72-.12-1.39,0-2.51,1.13-2.51,2.51s1.13,2.5,2.51,2.5,2.51-1.12,2.51-2.5c0-.25-.04-.49-.12-.72l2.87-2.86c3.38,2.59,8.23,1.97,10.84-1.41,2.6-3.37,1.97-8.21-1.41-10.82-1.04-.8-2.26-1.32-3.55-1.52m-1.19,11.58c-2.19.06-4.01-1.67-4.07-3.84-.06-2.19,1.67-4,3.85-4.06h.22c2.19.08,3.9,1.91,3.82,4.09-.07,2.08-1.74,3.74-3.82,3.81Z" fill="#2B2926" stroke-width="0"/>
</svg>
