<?xml version="1.0" encoding="UTF-8"?><svg id="uuid-1111af64-4686-41a7-b404-18a3dbfda792" xmlns="http://www.w3.org/2000/svg" xmlns:xlink="http://www.w3.org/1999/xlink" viewBox="0 0 128 15.59"><defs><clipPath id="uuid-5128070f-4404-4ce0-bec2-890604dd4d13"><rect width="128" height="15.59" fill="none"/></clipPath><clipPath id="uuid-8799cee4-36cd-4480-bb88-ab8875cd219d"><rect width="128" height="15.59" fill="none"/></clipPath><clipPath id="uuid-413eeafc-03ae-4459-b20b-e4fcf0f7c189"><rect width="128" height="15.59" fill="none"/></clipPath></defs><g clip-path="url(#uuid-5128070f-4404-4ce0-bec2-890604dd4d13)"><g clip-path="url(#uuid-8799cee4-36cd-4480-bb88-ab8875cd219d)"><g clip-path="url(#uuid-413eeafc-03ae-4459-b20b-e4fcf0f7c189)"><path d="m82.89,6.99c.65-.83.92-1.65.92-2.57,0-2.23-1.82-4.05-4.05-4.05h-7v14.73h7.64c2.5,0,4.51-2.03,4.51-4.51,0-1.55-.73-2.86-2.01-3.6h0Zm-6.35-3.4h2.3c.71,0,1.29.57,1.29,1.29s-.57,1.29-1.29,1.29h-2.3v-2.57h0Zm3.03,8.2h-3.04v-2.77h3.04c.77,0,1.38.62,1.38,1.38.01.77-.61,1.39-1.38,1.39Z" fill="#2B2926"/><path d="m94.67,0c-4.24,0-7.73,3.31-7.73,7.73s3.5,7.73,7.73,7.73,7.73-3.31,7.73-7.73-3.5-7.73-7.73-7.73Zm0,11.78c-2.21,0-3.78-1.85-3.78-4.05s1.57-4.05,3.78-4.05,3.78,1.85,3.78,4.05-1.57,4.05-3.78,4.05Z" fill="#2B2926"/><path d="m108.11,4.61c0-.55.74-1.01,1.85-1.01,1.47,0,2.3.74,2.3.74l2.12-2.86S112.52.01,109.57.01c-2.77,0-5.16,2.03-5.16,4.6.01,4.4,6.64,4.59,6.64,6.25,0,.55-.55,1.01-1.47,1.01-2.03,0-3.31-1.38-3.31-1.38l-2.21,2.95s1.85,2.03,5.52,2.03c2.95,0,5.52-1.85,5.52-4.6,0-4.42-7-4.78-7-6.26h0Z" fill="#2B2926"/><path d="m121,4.61c0-.55.74-1.01,1.85-1.01,1.47,0,2.3.74,2.3.74l2.12-2.86S125.41.01,122.48.01c-2.77,0-5.16,2.03-5.16,4.6,0,4.4,6.63,4.59,6.63,6.25,0,.55-.55,1.01-1.47,1.01-2.03,0-3.31-1.38-3.31-1.38l-2.21,2.95s1.85,2.03,5.52,2.03c2.95,0,5.52-1.85,5.52-4.6,0-4.42-7-4.78-7-6.26h0Z" fill="#2B2926"/><path d="m56.64.15c-4.23,0-7.72,3.31-7.72,7.72s3.25,7.49,7.28,7.71c.14,0,.29.01.44.01s.29,0,.44-.01c4.03-.22,7.28-3.45,7.28-7.71S60.87.15,56.64.15Zm0,11.77c-2.21,0-3.76-1.84-3.76-4.05s1.56-4.05,3.76-4.05,3.76,1.84,3.76,4.05-1.56,4.05-3.76,4.05Z" fill="#2B2926"/><path d="m9.19,6.03h-5.15V.51H0v14.71h4.05v-5.89h5.15v5.89h4.05V.51h-4.06v5.51Z" fill="#2B2926"/><path d="m25.94,9.33c0,1.84-1.48,2.57-2.58,2.57s-2.57-.73-2.57-2.57V.51h-4.05v8.46c0,4.23,3.04,6.43,6.21,6.6.14,0,.28.01.41.01.14,0,.29,0,.44-.01,3.16-.18,6.18-2.39,6.18-6.6V.51h-4.04v8.82h0Z" fill="#2B2926"/><path d="m39.9,9.33h3.13v1.84s-.92.74-2.76.74c-2.21,0-3.76-1.84-3.76-4.05s1.56-4.14,3.76-4.14c1.65,0,2.48.74,2.48.74l2.3-2.86s-1.83-1.47-4.78-1.47c-4.23,0-7.72,3.31-7.72,7.72s3.26,7.49,7.29,7.71c.14,0,.29.01.44.01.17,0,.33,0,.49-.01,3.9-.19,5.75-2.56,5.75-2.56v-6.9h-6.62v3.22h0Z" fill="#2B2926"/></g></g></g></svg>
