<?xml version="1.0" encoding="UTF-8"?><svg id="uuid-a0e048c5-548a-49a8-9946-c53fe72a757d" xmlns="http://www.w3.org/2000/svg" xmlns:xlink="http://www.w3.org/1999/xlink" viewBox="0 0 128 21.94"><defs><clipPath id="uuid-32c75ce4-e6f6-4158-a794-e976612983dc"><rect width="128" height="21.94" fill="none"/></clipPath><clipPath id="uuid-75d0230b-13f9-4fde-a58b-65f16a2699ee"><rect width="128" height="21.94" fill="none"/></clipPath><clipPath id="uuid-205c18f0-2d47-48b4-ae86-b0766fc56491"><rect width="128" height="21.94" fill="none"/></clipPath></defs><g clip-path="url(#uuid-32c75ce4-e6f6-4158-a794-e976612983dc)"><g clip-path="url(#uuid-75d0230b-13f9-4fde-a58b-65f16a2699ee)"><g clip-path="url(#uuid-205c18f0-2d47-48b4-ae86-b0766fc56491)"><path d="m39.96,3.66h-3.39v14.63h9.68v-2.95h-6.29V3.66Z" fill="#2B2926"/><path d="m12.64,8.39c-.88,1.89-2.24,2.96-3.75,2.96-.69,0-1.44-.25-2.43-.79l-1.17-.65.22-.17,2.25.98.29-.23-4.38-2.01-.46.36-1.34-.57v.51c1.99.88,2.88,1.38,5.42,3.1,2.64,1.79,5.76,3.09,8.73,3.65l.72-.7h-.19c-2.06,0-4.18-.88-5.48-2.27,1.36-.83,2.68-1.19,4.35-1.19.65,0,1.38.04,1.98.12l.45-.43c-.85-.13-1.74-.19-2.68-.19-.66,0-1.21.02-1.71.08.07-.07.29-.32.38-.41.38-.02.8-.03,1.18-.03,1.05,0,2.22.09,3.17.23l.45-.43c-1.26-.2-2.42-.29-3.66-.29-.36,0-.62,0-.75.01.12-.14.24-.3.29-.38.05,0,.1,0,.32,0,1.51,0,2.69.1,4.11.35l.45-.43c-1.58-.28-3-.41-4.57-.41.1-.16.17-.27.21-.35.04,0,.11,0,.19,0,1.29,0,3.31.2,4.5.45l.47-.45c-1.91-.36-3.6-.52-5.34-.52-.85,0-1.55.04-2.21.13h0Z" fill="#2B2926"/><path d="m53.85,13.77c0,1.4-.71,2.03-1.86,2.03-1.28,0-1.88-.63-1.88-2.03v-6.02h-3.16v6.17c0,3.47,1.4,4.68,4.1,4.68,1.65,0,2.55-.71,2.99-1.53v1.21h2.97V7.75h-3.16v6.02Z" fill="#2B2926"/><path d="m10.97,0C4.9,0,0,4.9,0,10.97s4.9,10.97,10.97,10.97,10.97-4.9,10.97-10.97S17.04,0,10.97,0Zm0,21.28C5.28,21.28.66,16.67.66,10.97S5.28.66,10.97.66s10.31,4.62,10.31,10.31-4.62,10.31-10.31,10.31h0Z" fill="#2B2926"/><path d="m59.43,7.36v.4h-1.59v2.57h1.59v7.96h3.16v-7.96h2.32v-2.57h-2.32v-.42c0-.92.52-1.25,1.51-1.25.38,0,.82.04.82.04v-2.55s-.52-.13-1.34-.13c-2.53,0-4.14,1.36-4.14,3.91h0Z" fill="#2B2926"/><path d="m90.22,7.44c-3.11,0-4.62,1.19-4.74,3.43h3.07c.04-.59.38-1.02,1.67-1.02,1.15,0,1.69.38,1.69.94,0,.5-.31.69-1.09.77l-2.01.21c-2.72.29-3.95,1.42-3.95,3.47,0,1.9,1.17,3.36,3.66,3.36,1.69,0,2.7-.54,3.57-1.63v1.32h2.88v-6.92c0-2.9-1.69-3.93-4.76-3.93Zm1.75,6.75c0,1.15-1.09,2.01-2.76,2.01-.82,0-1.3-.38-1.3-1.09,0-.54.33-1,1.4-1.15l1.82-.25c.31-.04.65-.1.84-.17v.65h0Z" fill="#2B2926"/><path d="m123.24,7.44c-3.11,0-4.62,1.19-4.74,3.43h3.07c.04-.59.38-1.02,1.67-1.02,1.15,0,1.69.38,1.69.94,0,.5-.31.69-1.09.77l-2.01.21c-2.72.29-3.95,1.42-3.95,3.47,0,1.9,1.17,3.36,3.66,3.36,1.69,0,2.7-.54,3.57-1.63v1.32h2.88v-6.92c0-2.9-1.69-3.93-4.76-3.93Zm1.76,6.75c0,1.15-1.09,2.01-2.76,2.01-.82,0-1.3-.38-1.3-1.09,0-.54.33-1,1.4-1.15l1.82-.25c.31-.04.65-.1.84-.17v.65h0Z" fill="#2B2926"/><path d="m113.08,11.68l-1.11-.15c-.9-.13-1.15-.38-1.15-.84s.4-.82,1.44-.82,1.4.38,1.5.98h3.07c-.15-2.28-1.69-3.43-4.58-3.43-3.11,0-4.6,1.48-4.6,3.49s1.34,2.99,3.66,3.3l1.11.15c1.09.15,1.5.4,1.5.94,0,.59-.5.88-1.74.88s-1.75-.38-1.84-1.15h-3.11c.06,2.11,1.34,3.55,4.95,3.55,3.32,0,4.89-1.32,4.89-3.53s-1.34-3.03-4.01-3.39h0Z" fill="#2B2926"/><path d="m102.29,7.44c-1.69,0-2.59.71-3.03,1.53v-1.21h-2.97v10.53h3.16v-6.02c0-1.4.71-2.03,1.9-2.03,1.32,0,1.92.63,1.92,2.03v6.02h3.16v-6.17c0-3.47-1.4-4.68-4.14-4.68Z" fill="#2B2926"/><path d="m70.47,4.68h-3.16v3.07h-1.59v2.57h1.59v4.45c0,2.55,1.53,3.7,4.05,3.7.77,0,1.5-.17,1.5-.17v-2.53s-.52.06-.9.06c-.92,0-1.5-.29-1.5-1.42v-4.1h2.4v-2.57h-2.4v-3.07Z" fill="#2B2926"/><path d="m79.86,7.44c-1.48,0-2.34.56-2.88,1.34V3.68h-3.18v14.61h3.16v-6.02c0-1.4.71-2.03,1.9-2.03,1.32,0,1.92.63,1.92,2.03v6.02h3.16v-6.17c0-3.47-1.4-4.68-4.07-4.68h0Z" fill="#2B2926"/></g></g></g></svg>
