<?xml version="1.0" encoding="UTF-8"?>
<svg id="Layer_1" data-name="Layer 1" xmlns="http://www.w3.org/2000/svg" version="1.1" viewBox="0 0 128 32.12">
  <defs>
    <style>
      .cls-1fgyjh5tseffcdgryjte {
        fill: #2B2926;
        stroke-width: 0px;
      }
    </style>
  </defs>
  <path class="cls-1fgyjh5tseffcdgryjte" d="M30.52,1.48C29.45.48,28.18,0,26.71,0c-.88,0-1.77,0-2.65,0-2.65,0-5.3,0-7.96,0S10.78,0,8.13,0c-.89,0-1.77,0-2.66,0-.5,0-1.02.05-1.51.18C1.66.77,0,2.89,0,5.28,0,12.47,0,19.67,0,26.87c0,1.15.37,2.19,1.06,3.1,1.09,1.42,2.55,2.15,4.35,2.15,6.13,0,12.26,0,18.39,0,1.18,0,2.36.04,3.53-.04,2.6-.18,4.84-2.41,4.85-5.29.01-7.05,0-14.1,0-21.15,0-.37-.03-.75-.08-1.12-.17-1.19-.72-2.2-1.59-3.03ZM26.33,8.32v16.03c0,.37-.02.73-.22,1.07-.3.5-.73.81-1.32.85-.32.02-.63.02-.95.02-2.58,0-5.16,0-7.74,0-2.78,0-5.56,0-8.33,0-.39,0-.77-.03-1.11-.25-.54-.35-.82-.85-.82-1.49v-12.74c0-1.39,0-2.78,0-4.17,0-1.07.73-1.79,1.79-1.79,5.64,0,11.27,0,16.91,0,.75,0,1.31.32,1.63,1,.09.19.13.42.15.64.03.28.01.56.01.84Z"/>
  <path class="cls-1fgyjh5tseffcdgryjte" d="M52.41,15.94c-1.37-.67-2.85-1.02-4.3-1.45-.8-.24-1.6-.49-2.38-.81-.7-.29-1.3-.74-1.61-1.47-.51-1.21-.16-2.73,1.13-3.56.72-.46,1.52-.69,2.37-.76,1.95-.16,3.69.35,5.13,1.72.24.23.46.49.7.74.58-.45,1.15-.9,1.74-1.36-.06-.06-.08-.09-.11-.12-.02-.03-.05-.05-.07-.08-1.39-1.7-3.18-2.68-5.34-2.98-1.68-.23-3.32-.07-4.88.64-1.15.53-2.08,1.3-2.65,2.46-.5,1.01-.61,2.08-.45,3.18.1.72.37,1.37.8,1.96.66.87,1.55,1.42,2.54,1.85,1.33.58,2.76.87,4.15,1.28.81.24,1.61.51,2.39.85.94.41,1.57,1.11,1.73,2.18.26,1.75-.79,3.38-2.55,3.94-1.13.36-2.27.41-3.43.22-1.76-.29-3.21-1.1-4.27-2.57-.08-.1-.15-.21-.24-.33-.62.45-1.22.88-1.82,1.32.03.06.06.1.08.13,1.44,2.12,3.48,3.24,5.98,3.59,1.41.2,2.81.14,4.18-.29,2.4-.75,3.98-2.26,4.33-4.84.16-1.15.01-2.26-.59-3.28-.6-1.01-1.51-1.67-2.55-2.18Z"/>
  <path class="cls-1fgyjh5tseffcdgryjte" d="M71.62,12.26v-.63c-.64,0-1.23,0-1.83,0-.2,0-.24.06-.24.25.01.6,0,1.21,0,1.86-.08-.07-.11-.09-.14-.12-1.07-1.34-2.45-2.1-4.16-2.27-1.63-.17-3.14.17-4.47,1.15-1.64,1.2-2.44,2.9-2.76,4.86-.2,1.24-.17,2.48.09,3.71.25,1.16.69,2.23,1.44,3.16,1.15,1.43,2.64,2.23,4.47,2.35,2.17.14,3.99-.55,5.38-2.27.03-.04.04-.11.05-.17.03.03.06.05.09.08v.26c0,2.48,0,4.96,0,7.44,0,.16.04.2.2.2.56,0,1.12,0,1.68,0,.16,0,.2-.06.19-.21-.01-.21,0-.41,0-.62V12.26ZM69.47,20.13c-.22,1.45-.76,2.72-1.98,3.62-.93.69-2.01.94-3.15.84-1.98-.17-3.4-1.38-3.96-3.31-.22-.76-.31-1.52-.31-2.31,0-1.19.19-2.35.76-3.41.9-1.67,2.35-2.34,4.19-2.24,1.27.06,2.36.54,3.2,1.52.72.84,1.08,1.84,1.24,2.92.12.79.12,1.58,0,2.37Z"/>
  <path class="cls-1fgyjh5tseffcdgryjte" d="M127.64,15.7c-.58-1.75-1.68-3.05-3.38-3.81-1.17-.52-2.4-.67-3.67-.53-1.38.15-2.6.66-3.64,1.59-1.32,1.19-2.02,2.71-2.3,4.44-.24,1.47-.17,2.93.27,4.37.44,1.44,1.22,2.65,2.44,3.55,1.1.81,2.35,1.2,3.7,1.27,2.07.11,3.94-.42,5.51-1.82.3-.27.57-.58.86-.88-.5-.44-.95-.85-1.41-1.25-.03-.03-.15,0-.19.03-.12.11-.21.25-.32.36-.98,1.02-2.19,1.51-3.58,1.57-1.14.05-2.21-.19-3.16-.85-1.1-.77-1.69-1.88-1.94-3.17-.08-.41-.11-.82-.16-1.28h9.19c.63,0,1.27,0,1.9,0,.13,0,.19-.03.21-.18.02-.29.04-.57.04-.85v-.03c0-.86-.09-1.71-.36-2.54ZM116.78,17.5c.02-.16.02-.31.05-.46.39-1.88,1.43-3.19,3.35-3.63,1.4-.32,2.76-.16,3.95.73.94.7,1.41,1.69,1.62,2.82.03.17.05.34.08.53h-9.05Z"/>
  <path class="cls-1fgyjh5tseffcdgryjte" d="M101.41,13.38c-.69-1.12-1.76-1.66-3-1.91-1.27-.26-2.55-.19-3.81.1-1.24.29-2.37.79-3.39,1.55-.13.1-.19.17-.06.31.09.1.15.23.23.35.24.36.48.72.73,1.1.19-.14.34-.27.5-.38,1.07-.74,2.27-1.08,3.56-1.18.91-.07,1.8,0,2.64.37,1.02.45,1.43,1.54.92,2.45-.3.53-.81.77-1.35.96-1.01.35-2.07.45-3.11.63-.84.14-1.68.31-2.47.66-1,.45-1.78,1.11-2.18,2.16-.28.73-.32,1.48-.23,2.24.19,1.58,1.01,2.72,2.49,3.35,1.41.59,2.86.62,4.33.27,1.02-.24,1.89-.77,2.58-1.57.03-.04.07-.06.14-.12v1.56h2.05c0-.05,0-.09,0-.13,0-3.54,0-7.08,0-10.62,0-.76-.18-1.47-.58-2.12ZM99.94,18.92c-.02.79.02,1.59-.07,2.38-.19,1.67-1.45,2.91-3.11,3.2-.9.16-1.79.16-2.66-.15-1.24-.44-1.68-1.44-1.59-2.6.09-1.15.76-1.65,1.86-1.95.83-.22,1.68-.36,2.53-.52,1.01-.19,2.02-.4,2.93-.91.02-.01.05-.02.1-.03,0,.21,0,.39,0,.58Z"/>
  <path class="cls-1fgyjh5tseffcdgryjte" d="M87.06,11.64c-.55,0-1.1,0-1.66,0-.06,0-.11.01-.19.02v.25c0,2.57,0,5.14,0,7.71,0,.62-.07,1.23-.27,1.83-.33,1-.9,1.84-1.79,2.42-1.09.71-2.28.92-3.55.64-.81-.17-1.42-.62-1.81-1.36-.38-.71-.49-1.49-.5-2.28-.01-2.98-.01-5.96,0-8.94,0-.24-.07-.28-.29-.28-.51.01-1.02,0-1.53,0-.08,0-.16.01-.24.02,0,.07-.01.13-.01.18,0,3.08,0,6.17,0,9.25,0,.72.08,1.42.29,2.11.41,1.35,1.2,2.38,2.51,2.97,1.1.49,2.26.54,3.42.35,1.45-.24,2.65-.94,3.58-2.09.04-.05.05-.12.08-.17.03.02.06.04.09.07v1.94h2.05v-.16c0-4.75,0-9.51,0-14.26,0-.17-.08-.19-.21-.19Z"/>
  <path class="cls-1fgyjh5tseffcdgryjte" d="M112.82,11.48c-1.64-.33-3.08.13-4.36,1.18-.28.23-.55.46-.78.64v-1.64h-2.04v14.6h2.03v-.22c0-2.49,0-4.97,0-7.46,0-.75.07-1.5.29-2.22.3-.98.81-1.82,1.7-2.37,1.13-.71,2.32-.73,3.53-.22.1.04.17.08.22-.07.17-.53.36-1.06.53-1.59.02-.06-.03-.18-.07-.2-.35-.16-.69-.35-1.06-.42Z"/>
  <path class="cls-1fgyjh5tseffcdgryjte" d="M19.4,11.66c-.8,0-1.61,0-2.41,0-1.41,0-2.81,0-4.22,0-.67,0-1.07.37-1.07,1,0,2.25,0,4.5,0,6.76,0,.61.41,1,1.03,1,1.12,0,2.24,0,3.36,0s2.2,0,3.29,0c.7,0,1.09-.37,1.09-1.07,0-2.21,0-4.42,0-6.62,0-.69-.37-1.06-1.07-1.06Z"/>
</svg>
