<svg version="1.1" xmlns="http://www.w3.org/2000/svg" xmlns:xlink="http://www.w3.org/1999/xlink" x="0" y="0" viewBox="0 0 85.4 42" xml:space="preserve"><style>.st232432454353546546{fill-rule:evenodd;clip-rule:evenodd;fill:#2B2926}</style><defs><path id="SVGID_1_3243242343424" d="M0 0h85.4v42H0z"/></defs><clipPath id="SVGID_00000061455218387060881380000003334912736557454993_"><use xlink:href="#SVGID_1_3243242343424" overflow="visible"/></clipPath><g clip-path="url(#SVGID_00000061455218387060881380000003334912736557454993_)"><defs><path id="SVGID_00000137093905659949040140000016905592737813939134_" d="M0 0h85.4v42H0z"/></defs><clipPath id="SVGID_00000086679678454397382720000011123966152873124508_"><use xlink:href="#SVGID_00000137093905659949040140000016905592737813939134_" overflow="visible"/></clipPath><g clip-path="url(#SVGID_00000086679678454397382720000011123966152873124508_)"><path class="st232432454353546546" d="M0 14.8l2.2.4c.1-3.4 1.2-6.6 3.1-9.4.2-.3.5-.5.8-.8.2-.3.5-.5.8-.7 2-1.5 4.5-2.3 7-2.3v22.2c0 2.3 0 9.2-.1 11-.1 1.9-.6 3-1.9 3.6-1.6.6-3.2.8-4.9.7v2.4h20.7v-2.4c-1.7.1-3.3-.1-4.9-.7-1.3-.7-1.8-1.9-2-3.6s-.1-8.7-.1-11V1.9c1.8 0 3.5.4 5.1 1.1 1.4.6 2.5 1.6 3.5 2.7 1.9 2.8 3 6 3.1 9.4l2.2-.4L34 .1c-.4-.1-15.9 0-16.7 0H.4L0 14.8z"/><path class="st232432454353546546" d="M0 27.8h8.5v-8.5H0v8.5zM25.9 27.8h8.5v-8.5h-8.5v8.5zM51.4 27.8h8.5v-8.5h-8.5v8.5zM76.9 27.8h8.5v-8.5h-8.5v8.5z"/></g></g></svg>
