<svg width="49" height="48" viewBox="0 0 49 48" fill="none" xmlns="http://www.w3.org/2000/svg">
<g clip-path="url(#clip0_8808_33021)">
<g clip-path="url(#clip1_8808_33021)">
<g clip-path="url(#clip2_8808_33021)">
<path d="M24.6668 0C11.42 0 0.67926 10.7474 0.67926 24.0055C0.67926 37.254 11.42 48 24.6668 48C37.9191 48 48.6793 37.254 48.6793 24.0055C48.6792 10.7474 37.9191 0 24.6668 0ZM24.6668 40.0083C15.8305 40.0083 8.65944 32.8467 8.65944 24.0055C8.65944 15.1506 15.8305 7.99442 24.6668 7.99442C33.5127 7.99442 40.6741 15.1505 40.6741 24.0055C40.6741 32.8467 33.5128 40.0083 24.6668 40.0083Z" fill="#2B2926"/>
<path d="M24.6666 15.7783C20.1261 15.7783 16.4472 19.4499 16.4472 24.0052C16.4472 28.5454 20.1261 32.2293 24.6666 32.2293C29.2113 32.2293 32.8985 28.5454 32.8985 24.0052C32.8985 19.4499 29.2113 15.7783 24.6666 15.7783Z" fill="#2B2926"/>
</g>
</g>
</g>
<defs>
<clipPath id="clip0_8808_33021">
<rect width="48" height="48" fill="white" transform="translate(0.678955)"/>
</clipPath>
<clipPath id="clip1_8808_33021">
<rect width="48" height="48" fill="white" transform="translate(0.678955)"/>
</clipPath>
<clipPath id="clip2_8808_33021">
<rect width="48" height="48" fill="white" transform="translate(0.678955)"/>
</clipPath>
</defs>
</svg>
