<svg version="1.1" xmlns="http://www.w3.org/2000/svg" xmlns:xlink="http://www.w3.org/1999/xlink" x="0" y="0" viewBox="0 0 128 24.4" xml:space="preserve"><style>.st2232423454354365667787{fill:#2B2926}</style><defs><path id="SVGID_1_3243243242342" d="M0 0h128v24.4H0z"/></defs><clipPath id="SVGID_00000160869138395319762940000002401428409455357361_"><use xlink:href="#SVGID_1_3243243242342" overflow="visible"/></clipPath><g clip-path="url(#SVGID_00000160869138395319762940000002401428409455357361_)"><defs><path id="SVGID_00000049196632371546569810000011247460481651852183_" d="M0 0h128v24.4H0z"/></defs><clipPath id="SVGID_00000051346392683382566990000011387328765177576107_"><use xlink:href="#SVGID_00000049196632371546569810000011247460481651852183_" overflow="visible"/></clipPath><g clip-path="url(#SVGID_00000051346392683382566990000011387328765177576107_)"><path class="st2232423454354365667787" d="M76.2 6.8V4.1h-9.4v13.5h9.4v-2.7h-5.6v-3h4.6V9.3h-4.6V6.8h5.6zM92.7 15h-5.9V4.1H83v13.5h9.7V15zM123.7 9.3c-2.6-.6-3.5-.7-3.5-1.7s1.3-1.3 2-1.3c1.4 0 2.8.4 4 1l1-2.5c-1.6-.8-3.4-1.2-5.2-1.1-3.6 0-6 1.4-6.1 4.3-.1 2.6 2 3.5 3.9 3.9s3.7.7 3.8 1.8c0 1-.9 1.5-2.6 1.5-1.6-.1-3.2-.4-4.6-1.1l-.9 2.7c1.7.7 3.5 1.1 5.4 1.1 2.5 0 4.4-.4 5.8-1.7.4-.4.7-.8.9-1.3.2-.5.3-1.1.3-1.6.1-2.1-1.2-3.3-4.2-4zM61.3 6.8V4.1H49.5v2.7h4v10.9h3.8V6.8h4zM105.8 4.1v9.7c-.1.8-.9 1.3-2.2 1.3-.9 0-1.6-.3-1.9-.8-.2-.4-.3-.9-.2-1.4V4.1h-4v9.3c0 1.3.2 1.9.8 2.6 1 1.2 2.8 1.8 5.4 1.8h.1c3.5 0 5.2-1.4 5.8-2.6.3-.6.3-.9.3-2.1v-9h-4.1M51.3.4L29 4.9v1.6h.1C43.9 2.9 51.4.7 51.4.7h.1V.6l-.2-.2c.1 0 .1.1 0 0"/><path d="M33.2 0c-1.1.1-3.1 1.7-4.2 2.6-4.4 3.8-7.7 7.3-10 11-5.6 3-11.5 5.5-17.6 7.5h-.2L0 24.4l.7-.3c5.7-2.2 11.3-4.7 16.7-7.5-.3.8-.5 1.6-.5 2.5 0 .5.1 1.1.3 1.6.2.5.5.9.9 1.3s.8.6 1.3.8c1.5.6 3.7.6 6.1-.1 6.1-1.9 13.4-7.6 15-8.7h.1v-.2h-.1c-1.7 1-10 5.9-15.3 7.4-2.7.7-4.8.3-5.6-.8-.6-.4-.7-.9-.7-1.4 0-1.1.5-2.5 1.5-4 .9-.5 1.8-1 2.5-1.5 5.3-3 11.3-8.7 11.6-12.2v-.1c0-.3-.1-.6-.4-.8-.1-.1-.3-.2-.4-.3-.2-.1-.4-.1-.5-.1zm-.6 1.7c.3-.2.4-.1.3.2-.2.4-.9 2.8-6.5 7.4-1.5 1.2-3 2.2-4.6 3.1 3.4-4.8 8.5-9.2 10.8-10.7z" fill="##2B2926"/><path class="st2232423454354365667787" d="M28.9 4.9L5.4 10l-.9 2.4 24.5-6 .7-.4V4.9h-.8z"/></g></g></svg>
