<?xml version="1.0" encoding="UTF-8"?><svg id="uuid-12ffdc52-0384-4ada-9f53-cc0dbdea72ac" xmlns="http://www.w3.org/2000/svg" xmlns:xlink="http://www.w3.org/1999/xlink" viewBox="0 0 128 21.05"><defs><clipPath id="uuid-6375b774-ef55-42f8-bc68-97ab08881229"><rect width="128" height="21.05" fill="none"/></clipPath><clipPath id="uuid-6582bfd0-b8f0-4b7a-b5f9-5a864e6dc893"><rect width="128" height="21.05" fill="none"/></clipPath><clipPath id="uuid-1b37c2b5-236a-4cc2-9f9f-7c8b7f0bc217"><rect width="128" height="21.05" fill="none"/></clipPath></defs><g clip-path="url(#uuid-6375b774-ef55-42f8-bc68-97ab08881229)"><g clip-path="url(#uuid-6582bfd0-b8f0-4b7a-b5f9-5a864e6dc893)"><g clip-path="url(#uuid-1b37c2b5-236a-4cc2-9f9f-7c8b7f0bc217)"><path d="m16.16,0C7.24,0,0,4.71,0,10.53s7.24,10.53,16.16,10.53,16.16-4.72,16.16-10.53S25.09,0,16.16,0Zm0,1.25c5.21,0,9.44,1.52,9.44,3.4,0,1.4-2.35,2.6-5.7,3.13-.55-3.64-2.01-6.25-3.73-6.25s-3.19,2.62-3.73,6.26c-3.35-.53-5.7-1.73-5.7-3.13,0-1.88,4.23-3.4,9.44-3.4Zm2.24,6.71c-.72.06-1.47.09-2.24.09s-1.52-.03-2.24-.09c.36-2.34,1.23-3.99,2.24-3.99s1.88,1.65,2.24,3.99Zm-3.28,12.02c-7.24-.38-12.94-4.64-12.94-9.83,0-1.77.66-3.42,1.81-4.86v-.03c.1,2.4,3.5,4.43,8.22,5.17v.47c0,4.35,1.25,8.01,2.95,9.08h-.03Zm1.04-3.27c-1.29,0-2.35-2.7-2.41-6.09h0,0c.78.07,1.58.11,2.41.11s1.63-.04,2.41-.11h0,0c-.05,3.38-1.11,6.09-2.41,6.09Zm1.04,3.27h-.03c1.69-1.06,2.95-4.72,2.95-9.07v-.47c4.71-.74,8.11-2.77,8.2-5.17v.03c1.17,1.44,1.83,3.09,1.83,4.86,0,5.2-5.7,9.46-12.94,9.83h0Z" fill="#2B2926"/><path d="m90.51,2.48c-4.44,0-8.05,3.61-8.05,8.05s3.61,8.05,8.05,8.05,8.05-3.6,8.05-8.05-3.61-8.05-8.05-8.05Zm0,13.14c-2.48,0-4.5-2.28-4.5-5.1s2.01-5.1,4.5-5.1,4.5,2.28,4.5,5.1-2.02,5.1-4.5,5.1Z" fill="#2B2926"/><path d="m112.43,3.04h-12.85v2.8h4.73v12.37h3.39V5.84h4.73v-2.8Z" fill="#2B2926"/><path d="m121.74,3.04h-4.22l-6.26,15.17h3.96l1.3-3.41h6.21l1.3,3.42h3.96l-6.26-15.17h0Zm.02,9.2h-4.27l2.12-5.55h.03l2.12,5.55h0Z" fill="#2B2926"/><path d="m37.08,5.84h4.73v12.37h3.39V5.84h4.73v-2.8h-12.85v2.8Z" fill="#2B2926"/><path d="m58.84,2.48c-4.44,0-8.05,3.61-8.05,8.05s3.61,8.05,8.05,8.05,8.05-3.6,8.05-8.05-3.61-8.05-8.05-8.05Zm0,13.14c-2.48,0-4.5-2.28-4.5-5.1s2.02-5.1,4.5-5.1,4.5,2.28,4.5,5.1-2.02,5.1-4.5,5.1Z" fill="#2B2926"/><path d="m74.68,9.41l-3.67-6.38h-3.96l5.92,9.41v5.76h3.44v-5.76l5.92-9.41h-3.96l-3.68,6.38Z" fill="#2B2926"/></g></g></g></svg>
