<svg width="30" height="30" viewBox="0 0 30 30" fill="none" xmlns="http://www.w3.org/2000/svg">
<path d="M6.989 13.8448C7.01091 13.8448 7.02724 13.8618 7.03821 13.8947L7.23663 18.4007C7.23663 18.4557 7.20885 18.4835 7.15383 18.4835H5.71799C5.663 18.4835 5.64603 18.4556 5.668 18.4007L6.939 13.8947C6.95 13.8617 6.96699 13.8448 6.989 13.8448Z" fill="url(#paint0_linear_780_3618)"/>
<path fill-rule="evenodd" clip-rule="evenodd" d="M6.02344 0.567598C11.76 -0.18919 17.5715 -0.189209 23.3081 0.567598C26.1509 0.942771 28.3874 3.18067 28.7624 6.02345C29.5192 11.76 29.5192 17.5716 28.7624 23.3081C28.3871 26.1506 26.1506 28.3872 23.3081 28.7624C17.5715 29.5192 11.76 29.5192 6.02344 28.7624C3.18071 28.3874 0.942806 26.1508 0.567589 23.3081C-0.189211 17.5716 -0.189182 11.76 0.567589 6.02345C0.94265 3.18057 3.18056 0.942659 6.02344 0.567598ZM14.7345 10.445C13.7663 10.445 12.9519 10.7361 12.2917 11.3192C11.6425 11.9024 11.2628 12.6841 11.1528 13.6635L10.4926 19.0116C10.4706 19.2536 10.4591 19.4296 10.4591 19.5396C10.4591 20.376 10.7122 21.042 11.2184 21.5372C11.7246 22.0214 12.4129 22.2637 13.2823 22.2637C14.2395 22.2636 15.0485 21.9719 15.7087 21.3887C16.3689 20.7945 16.7594 20.0019 16.8805 19.0116L16.8969 18.8467C16.9078 18.7919 16.8969 18.7477 16.8641 18.7147C16.8311 18.6708 16.7869 18.6484 16.732 18.6483L14.8665 18.5655C14.8115 18.5655 14.7621 18.5879 14.7181 18.6319C14.6851 18.6649 14.6627 18.7089 14.6517 18.7639L14.6025 19.21C14.5584 19.5289 14.4373 19.7877 14.2392 19.9857C14.0412 20.1727 13.7988 20.2662 13.5127 20.2662C13.2708 20.2661 13.073 20.1888 12.919 20.0349C12.776 19.8699 12.7042 19.6553 12.7042 19.3912C12.7042 19.3144 12.7097 19.254 12.7206 19.21L13.4143 13.5151C13.4583 13.1961 13.5789 12.9374 13.7768 12.7394C13.9749 12.5413 14.2118 12.4417 14.4869 12.4417C14.74 12.4417 14.9383 12.5243 15.0814 12.6894C15.2354 12.8434 15.3118 13.0526 15.3118 13.3167C15.3118 13.4047 15.3064 13.4711 15.2954 13.5151L15.2462 13.944C15.2352 14.0649 15.2901 14.1251 15.411 14.1252L17.2929 14.0432C17.348 14.0432 17.3919 14.0262 17.4249 13.9932C17.4689 13.9492 17.4968 13.8997 17.5078 13.8448L17.5406 13.6635C17.5626 13.4435 17.5734 13.2783 17.5734 13.1682C17.5734 12.3319 17.3203 11.6713 16.8141 11.1871C16.3079 10.6921 15.6147 10.445 14.7345 10.445ZM6.3617 10.5762C6.24065 10.5762 6.16348 10.6372 6.13046 10.7583L2.41667 21.9168C2.37273 22.0598 2.41669 22.1309 2.54869 22.1309H4.4134C4.53443 22.1309 4.61161 22.0706 4.64463 21.9496L5.1071 20.3654C5.1071 20.3103 5.14029 20.2826 5.20631 20.2826H7.23663C7.25852 20.2826 7.28037 20.2935 7.30225 20.3154C7.32426 20.3264 7.32966 20.3434 7.31866 20.3654L7.38506 21.9496C7.38506 22.0706 7.44541 22.1308 7.5663 22.1309H9.49819C9.61898 22.1307 9.67942 22.076 9.67942 21.966V21.9168L8.72168 10.7583C8.69968 10.6373 8.63401 10.5763 8.52404 10.5762H6.3617ZM18.9959 10.5762C18.9411 10.5763 18.8914 10.5988 18.8475 10.6426C18.8145 10.6756 18.7929 10.7197 18.7819 10.7747L17.4117 21.9332C17.4007 21.9881 17.4109 22.0377 17.4437 22.0816C17.4766 22.1145 17.521 22.1308 17.5757 22.1309H23.073C23.1278 22.1308 23.1721 22.1145 23.205 22.0816C23.2489 22.0377 23.276 21.9881 23.287 21.9332L23.4854 20.3326C23.4964 20.2777 23.48 20.2335 23.4362 20.2005C23.4033 20.1566 23.3591 20.1342 23.3042 20.1341H19.9693C19.9037 20.134 19.8818 20.1061 19.9037 20.0513L20.2169 17.4265C20.2171 17.3718 20.2504 17.3446 20.3161 17.3445H22.2308C22.2858 17.3445 22.3299 17.3274 22.3629 17.2945C22.4068 17.2506 22.4347 17.201 22.4457 17.1461L22.6441 15.5454C22.6551 15.4905 22.6434 15.4464 22.6105 15.4134C22.5775 15.3694 22.5335 15.347 22.4785 15.347H20.5474C20.5036 15.3469 20.4818 15.3191 20.4818 15.2642L20.8114 12.6558C20.8116 12.6012 20.8395 12.5738 20.8942 12.5738H22.7378L22.6996 12.2996C22.6087 11.641 22.3227 11.047 21.902 10.5762H18.9959ZM24.0627 4.00016C23.7794 6.05521 22.1626 7.67118 20.1076 7.95456V8.15767C21.6136 8.36535 22.8831 9.28893 23.5659 10.5762C23.6792 10.7898 23.7761 11.0138 23.8557 11.2457C23.9388 11.4887 24.0026 11.7407 24.0448 12.0004L24.0627 12.1121H24.2651C24.2816 11.9923 24.3022 11.874 24.3276 11.7574C24.3403 11.6989 24.3548 11.6409 24.3698 11.5832C24.8349 9.7843 26.3442 8.41627 28.2195 8.15767V7.95456C26.1644 7.67118 24.5485 6.05518 24.2651 4.00016H24.0627Z" fill="url(#paint1_linear_780_3618)"/>
<defs>
<linearGradient id="paint0_linear_780_3618" x1="-1.98741e-07" y1="1.74583" x2="34.7967" y2="15.5579" gradientUnits="userSpaceOnUse">
<stop stop-color="#FF670A"/>
<stop offset="0.3" stop-color="#FF892C"/>
<stop offset="0.45" stop-color="#FF9750"/>
<stop offset="0.5" stop-color="#FF9876"/>
<stop offset="0.8" stop-color="#FFA1B7"/>
<stop offset="1" stop-color="#FFD1E3"/>
</linearGradient>
<linearGradient id="paint1_linear_780_3618" x1="-1.98741e-07" y1="1.74583" x2="34.7967" y2="15.5579" gradientUnits="userSpaceOnUse">
<stop stop-color="#FF670A"/>
<stop offset="0.3" stop-color="#FF892C"/>
<stop offset="0.45" stop-color="#FF9750"/>
<stop offset="0.5" stop-color="#FF9876"/>
<stop offset="0.8" stop-color="#FFA1B7"/>
<stop offset="1" stop-color="#FFD1E3"/>
</linearGradient>
</defs>
</svg>
