<svg width="30" height="30" viewBox="0 0 30 30" fill="none" xmlns="http://www.w3.org/2000/svg">
<path d="M6.86598 13.1859C6.86598 13.1859 6.83398 13.2019 6.80998 13.2419L5.67398 16.6099C5.66598 16.6579 5.68998 16.6739 5.73798 16.6739H7.12998C7.18598 16.6739 7.20998 16.6499 7.20998 16.5939L6.88198 13.2419C6.88198 13.2419 6.87398 13.1859 6.85798 13.1859H6.86598Z" fill="url(#paint0_linear_1434_6203)"/>
<path d="M12.0499 22.3379H11.7299C11.7299 22.3379 11.6979 22.3459 11.6979 22.3699L11.5939 23.2339C11.5939 23.2339 11.5939 23.2659 11.6179 23.2659H11.9379C12.0819 23.2659 12.1939 23.2179 12.2899 23.1219C12.3859 23.0259 12.4339 22.8899 12.4339 22.7219C12.4339 22.6019 12.4019 22.5059 12.3299 22.4419C12.2659 22.3779 12.1699 22.3459 12.0659 22.3459L12.0499 22.3379Z" fill="url(#paint1_linear_1434_6203)"/>
<path d="M18.3619 12.25H17.4419C17.4419 12.25 17.3779 12.274 17.3619 12.314L17.1299 14.234C17.1139 14.282 17.1299 14.298 17.1859 14.298H18.1059C18.4179 14.298 18.6819 14.186 18.8739 13.97C19.0739 13.754 19.1699 13.458 19.1699 13.09C19.1699 12.826 19.0899 12.618 18.9379 12.466C18.7939 12.314 18.6019 12.234 18.3539 12.234L18.3619 12.25Z" fill="url(#paint2_linear_1434_6203)"/>
<path d="M28.77 6.026C28.394 3.186 26.154 0.946 23.314 0.57C17.578 -0.19 11.762 -0.19 6.026 0.57C3.186 0.946 0.946 3.186 0.57 6.026C-0.19 11.762 -0.19 17.578 0.57 23.314C0.946 26.154 3.186 28.394 6.026 28.77C11.762 29.53 17.578 29.53 23.314 28.77C26.154 28.394 28.394 26.154 28.77 23.314C29.53 17.578 29.53 11.762 28.77 6.026ZM11.93 10.498C11.938 10.45 11.954 10.418 11.986 10.386C12.018 10.354 12.066 10.33 12.106 10.33H13.97C14.018 10.33 14.05 10.346 14.074 10.386C14.098 10.41 14.114 10.45 14.098 10.498L12.978 19.642C12.97 19.69 12.946 19.73 12.914 19.762C12.89 19.786 12.85 19.802 12.802 19.802H10.938C10.89 19.802 10.858 19.786 10.834 19.762C10.81 19.73 10.794 19.682 10.81 19.642L11.93 10.498ZM9.786 19.65C9.786 19.746 9.73 19.802 9.626 19.802H7.682C7.586 19.802 7.53 19.754 7.53 19.65L7.41 18.458C7.41 18.458 7.386 18.402 7.354 18.402H5.138C5.138 18.402 5.082 18.418 5.058 18.458L4.65 19.65C4.626 19.746 4.562 19.802 4.458 19.802H2.538C2.434 19.802 2.394 19.746 2.426 19.626L5.89 10.474C5.93 10.386 5.994 10.338 6.09 10.338H8.386C8.482 10.338 8.538 10.386 8.546 10.474L9.778 19.626V19.65H9.786ZM13.642 22.778C13.61 23.074 13.514 23.33 13.37 23.554C13.226 23.77 13.034 23.946 12.802 24.066C12.57 24.186 12.314 24.25 12.034 24.25H11.498C11.498 24.25 11.466 24.258 11.466 24.282L11.274 25.842C11.274 25.842 11.258 25.898 11.234 25.914C11.218 25.93 11.194 25.938 11.17 25.938H10.138C10.138 25.938 10.09 25.93 10.074 25.914C10.058 25.898 10.058 25.874 10.058 25.842L10.61 21.354C10.61 21.354 10.626 21.298 10.642 21.282C10.658 21.266 10.682 21.258 10.714 21.258H12.394C12.786 21.258 13.09 21.378 13.322 21.61C13.554 21.842 13.674 22.154 13.674 22.546C13.674 22.594 13.674 22.674 13.658 22.778H13.642ZM17.274 22.754C17.242 23.026 17.154 23.266 17.018 23.482C16.882 23.69 16.706 23.85 16.49 23.97C16.474 23.97 16.466 23.986 16.466 24.01L16.914 25.842V25.866C16.914 25.922 16.882 25.954 16.818 25.954H15.746C15.69 25.954 15.658 25.93 15.65 25.874L15.298 24.178C15.298 24.178 15.274 24.154 15.266 24.154H15.138C15.138 24.154 15.106 24.162 15.098 24.186L14.898 25.858C14.898 25.858 14.882 25.914 14.858 25.93C14.842 25.946 14.818 25.954 14.786 25.954H13.762C13.762 25.954 13.706 25.946 13.69 25.93C13.674 25.914 13.674 25.89 13.674 25.858L14.234 21.37C14.234 21.37 14.25 21.314 14.266 21.298C14.282 21.282 14.306 21.274 14.338 21.274H16.05C16.426 21.274 16.722 21.386 16.946 21.618C17.17 21.842 17.282 22.146 17.282 22.522C17.282 22.626 17.282 22.714 17.266 22.77L17.274 22.754ZM20.97 22.81L20.778 24.402C20.738 24.722 20.634 25.01 20.466 25.25C20.298 25.49 20.09 25.682 19.826 25.81C19.562 25.946 19.266 26.01 18.938 26.01C18.49 26.01 18.138 25.89 17.882 25.642C17.626 25.394 17.49 25.066 17.49 24.642C17.49 24.538 17.49 24.45 17.506 24.394L17.698 22.802C17.738 22.482 17.842 22.202 18.01 21.954C18.178 21.714 18.386 21.53 18.65 21.394C18.914 21.258 19.21 21.194 19.53 21.194C19.978 21.194 20.338 21.314 20.594 21.562C20.85 21.802 20.986 22.13 20.986 22.546C20.986 22.65 20.986 22.738 20.97 22.794V22.81ZM21.33 13.266C21.266 13.826 21.09 14.322 20.802 14.754C20.514 15.178 20.146 15.498 19.69 15.714C19.666 15.722 19.65 15.754 19.65 15.794L20.626 19.61V19.65C20.626 19.746 20.57 19.802 20.466 19.802H18.522C18.434 19.802 18.378 19.754 18.362 19.666L17.578 16.082C17.578 16.082 17.538 16.026 17.514 16.026H16.986C16.986 16.026 16.954 16.034 16.93 16.05C16.922 16.058 16.914 16.074 16.914 16.09L16.482 19.634C16.474 19.682 16.45 19.722 16.418 19.754C16.394 19.778 16.354 19.794 16.314 19.794H14.45C14.402 19.794 14.37 19.778 14.338 19.754C14.314 19.722 14.306 19.674 14.314 19.634L15.434 10.49C15.442 10.442 15.458 10.41 15.49 10.378C15.522 10.346 15.57 10.322 15.61 10.322H18.962C19.698 10.322 20.29 10.546 20.722 10.994C21.154 11.434 21.37 12.034 21.37 12.778C21.37 12.986 21.362 13.146 21.346 13.25L21.33 13.266ZM27.698 8.082C25.682 8.362 24.098 9.946 23.818 11.962H23.618C23.338 9.946 21.754 8.362 19.738 8.082V7.882C21.754 7.602 23.338 6.018 23.618 4.002H23.818C24.098 6.018 25.682 7.602 27.698 7.882V8.082Z" fill="url(#paint3_linear_1434_6203)"/>
<path d="M15.714 22.3379H15.362C15.362 22.3379 15.33 22.3459 15.33 22.3699L15.226 23.1539C15.226 23.1539 15.234 23.1859 15.25 23.1859H15.602C15.73 23.1859 15.842 23.1379 15.922 23.0499C16.01 22.9539 16.058 22.8339 16.058 22.6899C16.058 22.5779 16.026 22.4899 15.962 22.4259C15.898 22.3619 15.818 22.3299 15.706 22.3299L15.714 22.3379Z" fill="url(#paint4_linear_1434_6203)"/>
<path d="M19.394 22.282C19.274 22.282 19.17 22.33 19.082 22.418C18.994 22.506 18.946 22.626 18.93 22.77L18.73 24.442C18.73 24.442 18.73 24.498 18.73 24.538C18.73 24.658 18.762 24.754 18.826 24.826C18.89 24.898 18.978 24.93 19.09 24.93C19.218 24.93 19.322 24.882 19.402 24.794C19.49 24.706 19.546 24.586 19.562 24.442L19.77 22.77V22.69C19.77 22.562 19.746 22.466 19.674 22.394C19.61 22.322 19.514 22.282 19.41 22.282H19.394Z" fill="url(#paint5_linear_1434_6203)"/>
<defs>
<linearGradient id="paint0_linear_1434_6203" x1="-1.98809e-07" y1="1.74643" x2="34.8085" y2="15.5632" gradientUnits="userSpaceOnUse">
<stop stop-color="#FF670A"/>
<stop offset="0.3" stop-color="#FF892C"/>
<stop offset="0.45" stop-color="#FF9750"/>
<stop offset="0.5" stop-color="#FF9876"/>
<stop offset="0.8" stop-color="#FFA1B7"/>
<stop offset="1" stop-color="#FFD1E3"/>
</linearGradient>
<linearGradient id="paint1_linear_1434_6203" x1="-1.98809e-07" y1="1.74643" x2="34.8085" y2="15.5632" gradientUnits="userSpaceOnUse">
<stop stop-color="#FF670A"/>
<stop offset="0.3" stop-color="#FF892C"/>
<stop offset="0.45" stop-color="#FF9750"/>
<stop offset="0.5" stop-color="#FF9876"/>
<stop offset="0.8" stop-color="#FFA1B7"/>
<stop offset="1" stop-color="#FFD1E3"/>
</linearGradient>
<linearGradient id="paint2_linear_1434_6203" x1="-1.98809e-07" y1="1.74643" x2="34.8085" y2="15.5632" gradientUnits="userSpaceOnUse">
<stop stop-color="#FF670A"/>
<stop offset="0.3" stop-color="#FF892C"/>
<stop offset="0.45" stop-color="#FF9750"/>
<stop offset="0.5" stop-color="#FF9876"/>
<stop offset="0.8" stop-color="#FFA1B7"/>
<stop offset="1" stop-color="#FFD1E3"/>
</linearGradient>
<linearGradient id="paint3_linear_1434_6203" x1="-1.98809e-07" y1="1.74643" x2="34.8085" y2="15.5632" gradientUnits="userSpaceOnUse">
<stop stop-color="#FF670A"/>
<stop offset="0.3" stop-color="#FF892C"/>
<stop offset="0.45" stop-color="#FF9750"/>
<stop offset="0.5" stop-color="#FF9876"/>
<stop offset="0.8" stop-color="#FFA1B7"/>
<stop offset="1" stop-color="#FFD1E3"/>
</linearGradient>
<linearGradient id="paint4_linear_1434_6203" x1="-1.98809e-07" y1="1.74643" x2="34.8085" y2="15.5632" gradientUnits="userSpaceOnUse">
<stop stop-color="#FF670A"/>
<stop offset="0.3" stop-color="#FF892C"/>
<stop offset="0.45" stop-color="#FF9750"/>
<stop offset="0.5" stop-color="#FF9876"/>
<stop offset="0.8" stop-color="#FFA1B7"/>
<stop offset="1" stop-color="#FFD1E3"/>
</linearGradient>
<linearGradient id="paint5_linear_1434_6203" x1="-1.98809e-07" y1="1.74643" x2="34.8085" y2="15.5632" gradientUnits="userSpaceOnUse">
<stop stop-color="#FF670A"/>
<stop offset="0.3" stop-color="#FF892C"/>
<stop offset="0.45" stop-color="#FF9750"/>
<stop offset="0.5" stop-color="#FF9876"/>
<stop offset="0.8" stop-color="#FFA1B7"/>
<stop offset="1" stop-color="#FFD1E3"/>
</linearGradient>
</defs>
</svg>
