<svg width="30" height="30" viewBox="0 0 30 30" fill="none" xmlns="http://www.w3.org/2000/svg">
<path d="M7.75535 13.7737C7.7771 13.7738 7.79367 13.7902 7.80456 13.8229L8.00064 18.296C8.00064 18.3505 7.97376 18.3779 7.9194 18.378H6.49372C6.4391 18.378 6.42266 18.3506 6.4445 18.296L7.70613 13.8229C7.71705 13.7902 7.73352 13.7737 7.75535 13.7737Z" fill="url(#paint0_linear_780_2550)"/>
<path d="M19.1826 12.512C19.4667 12.512 19.6906 12.6217 19.8545 12.8401C20.0292 13.0476 20.1169 13.3313 20.1169 13.6916C20.1169 14.2267 19.9915 14.6584 19.7404 14.9861C19.4892 15.3138 19.1775 15.4782 18.8061 15.4782H18.1015C18.0361 15.4782 18.0142 15.4506 18.0358 15.3962L18.3804 12.5941C18.3804 12.5394 18.4078 12.512 18.4624 12.512H19.1826Z" fill="url(#paint1_linear_780_2550)"/>
<path fill-rule="evenodd" clip-rule="evenodd" d="M6.02344 0.567598C11.76 -0.189189 17.5715 -0.189209 23.3081 0.567598C26.1509 0.942771 28.3874 3.18067 28.7624 6.02345C29.5192 11.76 29.5192 17.5716 28.7624 23.3081C28.3871 26.1506 26.1506 28.3872 23.3081 28.7624C17.5715 29.5192 11.76 29.5192 6.02344 28.7624C3.18071 28.3874 0.942806 26.1508 0.567589 23.3081C-0.189211 17.5716 -0.189182 11.76 0.567589 6.02345C0.94265 3.18057 3.18056 0.942659 6.02344 0.567598ZM7.13273 10.5294C7.01257 10.5294 6.93584 10.5897 6.90306 10.7098L3.21661 21.7864C3.17295 21.9283 3.21622 21.9995 3.34707 21.9996H5.19928C5.31927 21.9995 5.39543 21.9392 5.42817 21.8192L5.88751 20.2458C5.88765 20.1915 5.91998 20.1647 5.98516 20.1646H8.00064C8.02249 20.1646 8.04441 20.1756 8.06626 20.1974C8.08804 20.2083 8.09346 20.2241 8.08267 20.2458L8.14828 21.8192C8.14828 21.9393 8.20858 21.9996 8.32874 21.9996H10.2458C10.366 21.9996 10.4262 21.9448 10.4262 21.8356V21.7864L9.47553 10.7098C9.45368 10.5897 9.38791 10.5294 9.27867 10.5294H7.13273ZM12.9292 10.5294C12.8746 10.5294 12.8252 10.5513 12.7815 10.595C12.7489 10.6277 12.7276 10.6717 12.7167 10.7262L11.3566 21.8028C11.3457 21.8574 11.3567 21.9067 11.3895 21.9504C11.4221 21.983 11.4655 21.9996 11.5199 21.9996H13.3721C13.4265 21.9996 13.4754 21.983 13.519 21.9504C13.5627 21.9067 13.5901 21.8574 13.601 21.8028L14.9611 10.7262C14.9611 10.5951 14.9008 10.5294 14.7806 10.5294H12.9292ZM16.5774 10.5294C16.5229 10.5294 16.4741 10.5515 16.4305 10.595C16.3977 10.6278 16.3758 10.6716 16.3649 10.7262L15.0048 21.8028C14.9939 21.8574 15.0049 21.9067 15.0376 21.9504C15.0704 21.9831 15.1143 21.9996 15.1689 21.9996H17.0203C17.0747 21.9996 17.1236 21.983 17.1672 21.9504C17.2109 21.9067 17.2383 21.8574 17.2492 21.8028L17.7905 17.3297C17.7905 17.2751 17.8229 17.2477 17.8882 17.2476H18.4132C18.4458 17.2478 18.4734 17.2697 18.4952 17.3132L19.1662 21.8356C19.1881 21.9448 19.2539 21.9996 19.3631 21.9996H21.2637C21.3183 21.9996 21.3622 21.9831 21.395 21.9504C21.4387 21.9067 21.4606 21.8574 21.4606 21.8028V21.77L20.5919 16.9359C20.5812 16.9143 20.581 16.8976 20.5919 16.8867C20.6028 16.8651 20.6195 16.8492 20.6411 16.8383C21.0999 16.5652 21.4773 16.1823 21.7723 15.6907C22.078 15.1883 22.2692 14.6203 22.3457 13.9869C22.3675 13.845 22.3785 13.6428 22.3785 13.3807C22.3785 12.5178 22.1435 11.8294 21.6739 11.316C21.2042 10.7918 20.576 10.5294 19.7896 10.5294H16.5774ZM23.8714 4.00016C23.59 6.04014 21.9859 7.64435 19.9459 7.92565V8.1272C21.9859 8.40853 23.59 10.0126 23.8714 12.0527H24.0721C24.3533 10.0126 25.9583 8.40854 27.9984 8.1272V7.92565C25.9584 7.64435 24.3534 6.04018 24.0721 4.00016H23.8714Z" fill="url(#paint2_linear_780_2550)"/>
<defs>
<linearGradient id="paint0_linear_780_2550" x1="-1.98741e-07" y1="1.74583" x2="34.7967" y2="15.5579" gradientUnits="userSpaceOnUse">
<stop stop-color="#FF670A"/>
<stop offset="0.3" stop-color="#FF892C"/>
<stop offset="0.45" stop-color="#FF9750"/>
<stop offset="0.5" stop-color="#FF9876"/>
<stop offset="0.8" stop-color="#FFA1B7"/>
<stop offset="1" stop-color="#FFD1E3"/>
</linearGradient>
<linearGradient id="paint1_linear_780_2550" x1="-1.98741e-07" y1="1.74583" x2="34.7967" y2="15.5579" gradientUnits="userSpaceOnUse">
<stop stop-color="#FF670A"/>
<stop offset="0.3" stop-color="#FF892C"/>
<stop offset="0.45" stop-color="#FF9750"/>
<stop offset="0.5" stop-color="#FF9876"/>
<stop offset="0.8" stop-color="#FFA1B7"/>
<stop offset="1" stop-color="#FFD1E3"/>
</linearGradient>
<linearGradient id="paint2_linear_780_2550" x1="-1.98741e-07" y1="1.74583" x2="34.7967" y2="15.5579" gradientUnits="userSpaceOnUse">
<stop stop-color="#FF670A"/>
<stop offset="0.3" stop-color="#FF892C"/>
<stop offset="0.45" stop-color="#FF9750"/>
<stop offset="0.5" stop-color="#FF9876"/>
<stop offset="0.8" stop-color="#FFA1B7"/>
<stop offset="1" stop-color="#FFD1E3"/>
</linearGradient>
</defs>
</svg>
