<svg width="30" height="30" viewBox="0 0 30 30" fill="none" xmlns="http://www.w3.org/2000/svg">
<path d="M6.99524 13.8604C7.0172 13.8605 7.03347 13.8774 7.04446 13.9104L7.24288 18.4225C7.24288 18.4776 7.21517 18.5053 7.16008 18.5053H5.72268C5.66758 18.5053 5.65065 18.4776 5.67269 18.4225L6.94525 13.9104C6.95627 13.8773 6.97321 13.8604 6.99524 13.8604Z" fill="url(#paint0_linear_780_3096)"/>
<path d="M19.3928 13.8604C19.4147 13.8605 19.431 13.8774 19.442 13.9104L19.6404 18.4225C19.6404 18.4776 19.6127 18.5053 19.5576 18.5053H18.1194C18.0646 18.5052 18.0482 18.4775 18.0702 18.4225L19.3428 13.9104C19.3538 13.8773 19.3707 13.8604 19.3928 13.8604Z" fill="url(#paint1_linear_780_3096)"/>
<path fill-rule="evenodd" clip-rule="evenodd" d="M6.02344 0.567598C11.76 -0.189189 17.5715 -0.189209 23.3081 0.567598C26.1509 0.942771 28.3874 3.18067 28.7624 6.02345C29.5192 11.76 29.5192 17.5716 28.7624 23.3081C28.3871 26.1506 26.1506 28.3872 23.3081 28.7624C17.5715 29.5192 11.76 29.5192 6.02344 28.7624C3.18071 28.3874 0.942806 26.1508 0.567589 23.3081C-0.189211 17.5716 -0.189182 11.76 0.567589 6.02345C0.94265 3.18057 3.18056 0.942659 6.02344 0.567598ZM6.36717 10.588C6.24595 10.588 6.16899 10.6488 6.13593 10.77L2.41667 21.9434C2.3726 22.0866 2.41648 22.1582 2.54869 22.1582H4.41653C4.53774 22.1582 4.6147 22.0974 4.64776 21.9762L5.11101 20.3896C5.11104 20.3345 5.14414 20.3068 5.21022 20.3068H7.24288C7.26492 20.3068 7.28725 20.3183 7.30928 20.3404C7.3311 20.3514 7.33661 20.3677 7.32569 20.3896L7.39209 21.9762C7.39209 22.0973 7.45229 22.1581 7.57333 22.1582H9.50756C9.62861 22.1582 9.68944 22.1033 9.68958 21.9934V21.9434L8.73027 10.77C8.70826 10.6489 8.64262 10.5881 8.53263 10.588H6.36717ZM10.2614 10.588C10.1292 10.588 10.063 10.6488 10.063 10.77V10.8028L10.9887 21.9762C10.9887 22.0974 11.0495 22.1582 11.1707 22.1582H13.2362C13.3574 22.1582 13.4352 22.0974 13.4682 21.9762L17.1539 10.8028C17.1979 10.6596 17.154 10.588 17.0219 10.588H15.022C14.9008 10.588 14.823 10.6488 14.79 10.77L12.8229 18.0429C12.8119 18.0866 12.7902 18.1084 12.7573 18.1085C12.7353 18.1085 12.7246 18.0867 12.7245 18.0429L12.5089 10.77C12.5089 10.6488 12.4487 10.588 12.3277 10.588H10.2614ZM18.7647 10.588C18.6435 10.588 18.5657 10.6488 18.5327 10.77L14.8142 21.9434C14.7701 22.0866 14.814 22.1582 14.9462 22.1582H16.8141C16.9352 22.1582 17.0122 22.0974 17.0453 21.9762L17.5085 20.3896C17.5086 20.3345 17.5417 20.3068 17.6077 20.3068H19.6404C19.6625 20.3068 19.6848 20.3183 19.7068 20.3404C19.7286 20.3514 19.7341 20.3677 19.7232 20.3896L19.7896 21.9762C19.7896 22.0973 19.8498 22.1581 19.9709 22.1582H21.9051C22.0261 22.1582 22.087 22.1033 22.0871 21.9934V21.9434L21.1278 10.77C21.1058 10.6488 21.0396 10.588 20.9294 10.588H18.7647ZM23.2597 4.00016C22.9759 6.05796 21.3576 7.67619 19.2998 7.96003V8.16314C21.3576 8.44701 22.9759 10.0651 23.2597 12.123H23.462C23.7457 10.0651 25.3641 8.44703 27.4219 8.16314V7.96003C25.3641 7.67617 23.7458 6.05794 23.462 4.00016H23.2597Z" fill="url(#paint2_linear_780_3096)"/>
<defs>
<linearGradient id="paint0_linear_780_3096" x1="-1.98741e-07" y1="1.74583" x2="34.7967" y2="15.5579" gradientUnits="userSpaceOnUse">
<stop stop-color="#FF670A"/>
<stop offset="0.3" stop-color="#FF892C"/>
<stop offset="0.45" stop-color="#FF9750"/>
<stop offset="0.5" stop-color="#FF9876"/>
<stop offset="0.8" stop-color="#FFA1B7"/>
<stop offset="1" stop-color="#FFD1E3"/>
</linearGradient>
<linearGradient id="paint1_linear_780_3096" x1="-1.98741e-07" y1="1.74583" x2="34.7967" y2="15.5579" gradientUnits="userSpaceOnUse">
<stop stop-color="#FF670A"/>
<stop offset="0.3" stop-color="#FF892C"/>
<stop offset="0.45" stop-color="#FF9750"/>
<stop offset="0.5" stop-color="#FF9876"/>
<stop offset="0.8" stop-color="#FFA1B7"/>
<stop offset="1" stop-color="#FFD1E3"/>
</linearGradient>
<linearGradient id="paint2_linear_780_3096" x1="-1.98741e-07" y1="1.74583" x2="34.7967" y2="15.5579" gradientUnits="userSpaceOnUse">
<stop stop-color="#FF670A"/>
<stop offset="0.3" stop-color="#FF892C"/>
<stop offset="0.45" stop-color="#FF9750"/>
<stop offset="0.5" stop-color="#FF9876"/>
<stop offset="0.8" stop-color="#FFA1B7"/>
<stop offset="1" stop-color="#FFD1E3"/>
</linearGradient>
</defs>
</svg>
