<svg width="27" height="27" viewBox="0 0 27 27" fill="none" xmlns="http://www.w3.org/2000/svg">
<path d="M21.9304 16.628C20.3659 15.7919 18.3166 16.0522 17.0347 17.2372L16.7427 17.503C16.4675 17.7579 16.0939 17.9143 15.6833 17.9143C15.3747 17.9143 15.0874 17.8257 14.8455 17.6729L14.851 17.6765C13.9195 17.0863 12.5867 16.1481 11.5069 15.0317C10.5161 14.0049 9.71435 12.8027 9.21384 11.9712C9.03774 11.6846 8.933 11.3393 8.933 10.9697C8.933 10.3975 9.18325 9.88227 9.58273 9.52252L9.58366 9.52161C10.9137 8.30136 11.2835 6.40047 10.4707 4.7364L7.80686 0L6.99122 0.178067C2.77215 1.08648 1.11306 3.48541 0.466111 5.33659C-1.00945 9.55506 1.09452 15.5922 5.69918 20.3629C8.39542 23.1596 11.6533 25.2123 14.8696 26.1388C15.8196 26.4298 16.9161 26.6179 18.0515 26.6612L18.0756 26.6621L18.3768 26.6667L18.8337 26.6576C19.806 26.6197 20.7218 26.428 21.5717 26.1072L21.5133 26.1261C23.8842 25.2322 25.5915 23.2237 26.4387 20.3195L26.6667 19.5386L21.9267 16.6289L21.9304 16.628Z" fill="url(#paint0_linear_780_1875)"/>
<defs>
<linearGradient id="paint0_linear_780_1875" x1="-1.80694e-07" y1="1.5873" x2="31.6369" y2="14.1451" gradientUnits="userSpaceOnUse">
<stop stop-color="#FF670A"/>
<stop offset="0.3" stop-color="#FF892C"/>
<stop offset="0.45" stop-color="#FF9750"/>
<stop offset="0.5" stop-color="#FF9876"/>
<stop offset="0.8" stop-color="#FFA1B7"/>
<stop offset="1" stop-color="#FFD1E3"/>
</linearGradient>
</defs>
</svg>
