<svg width="26" height="27" viewBox="0 0 26 27" fill="none" xmlns="http://www.w3.org/2000/svg">
<path d="M19.3665 1.43498C21.2691 2.40263 22.7529 3.75101 23.7834 5.44302C24.8112 7.13503 25.3333 9.0772 25.3333 11.2118C25.3333 13.3395 24.8112 15.2762 23.7834 16.9696C22.7529 18.6643 21.2691 20.0113 19.3678 20.9762C18.9063 21.2168 18.3566 21.4504 17.7876 21.6401L17.705 21.6635C17.0023 21.904 16.4099 22.315 15.9566 22.8469L15.9525 22.8524L12.6667 26.6667L9.38083 22.8524C8.92205 22.3164 8.33101 21.9054 7.65731 21.6704L7.62976 21.6621C6.97948 21.4518 6.4284 21.2182 5.90211 20.946L5.96411 20.9749C4.06287 20.01 2.57632 18.663 1.54992 16.9723C0.52353 15.2817 0 13.3423 0 11.2118C0 9.0717 0.522152 7.1309 1.54992 5.44302C2.5777 3.75101 4.06562 2.40125 5.97237 1.43498C7.85157 0.482449 10.1041 0 12.6667 0C15.2347 0 17.4887 0.482449 19.3665 1.43498ZM18.7189 10.2771L16.9513 9.20502C15.8092 11.0812 15.1589 11.3492 14.9316 11.3767C14.5968 11.429 14.0361 10.9012 13.5195 10.394L13.5153 10.3898C12.7108 9.60363 11.7078 8.62361 10.3025 8.76793C9.08462 8.88889 7.92183 9.8208 6.64607 11.697L8.35581 12.8529C9.51171 11.1554 10.1992 10.8503 10.5092 10.8201C10.9432 10.7843 11.497 11.3039 12.0687 11.8647C12.792 12.5753 13.6793 13.4426 14.8765 13.4426C14.9798 13.4426 15.0845 13.4357 15.1879 13.422C16.3934 13.2722 17.4818 12.3031 18.7189 10.2771Z" fill="url(#paint0_linear_780_3593)"/>
<defs>
<linearGradient id="paint0_linear_780_3593" x1="-1.7166e-07" y1="1.5873" x2="30.4593" y2="13.0732" gradientUnits="userSpaceOnUse">
<stop stop-color="#FF670A"/>
<stop offset="0.3" stop-color="#FF892C"/>
<stop offset="0.45" stop-color="#FF9750"/>
<stop offset="0.5" stop-color="#FF9876"/>
<stop offset="0.8" stop-color="#FFA1B7"/>
<stop offset="1" stop-color="#FFD1E3"/>
</linearGradient>
</defs>
</svg>
