<svg width="29" height="29" viewBox="0 0 29 29" fill="none" xmlns="http://www.w3.org/2000/svg">
<path fill-rule="evenodd" clip-rule="evenodd" d="M4.45215 19.1782C5.82699 17.8596 8.01111 17.9043 9.33008 19.2788C10.649 20.6538 10.6033 22.8387 9.22852 24.1577C8.88819 24.4841 8.37607 24.8104 7.8584 25.103C7.3157 25.4098 6.67465 25.7306 6.0127 26.0366C4.69401 26.6463 3.22568 27.2289 2.17773 27.5542L0 28.23L0.765625 26.0825C1.13419 25.049 1.77745 23.6053 2.44141 22.313C2.77473 21.6643 3.12212 21.0368 3.45117 20.5073C3.76506 20.0023 4.11198 19.5046 4.45215 19.1782ZM20.1807 0.494651C22.4277 -0.113043 24.9377 -0.150167 27.8389 0.324729L28.6836 0.462424L28.7861 1.31203C29.1401 4.23043 28.9992 6.73675 28.2988 8.95656C27.5948 11.1874 26.3482 13.0594 24.6016 14.7349C23.8033 15.5006 22.798 16.2039 21.7285 16.8335C21.6675 18.7159 21.7497 21.5356 19.1221 24.0562C17.0184 26.074 14.6426 26.9759 13.2168 27.4185L11.1299 28.0669L13.5908 20.3364C13.5889 20.337 13.5868 20.3388 13.585 20.3394C13.5563 20.3483 13.5332 20.3541 13.5176 20.3589C13.5099 20.3613 13.5033 20.3635 13.499 20.3648C13.497 20.3654 13.4941 20.3667 13.4941 20.3667L13.4922 20.3677H13.4912L12.8223 20.5698L7.93262 15.4722L8.125 14.9155L0.510742 16.9966L1.24414 14.938C1.74559 13.5318 2.74594 11.1954 4.84961 9.17727C7.37447 6.75539 10.0714 6.84367 11.9492 6.86965C12.6462 5.77552 13.4215 4.74825 14.2549 3.94875C16.0015 2.2733 17.9226 1.10538 20.1807 0.494651ZM20.0957 5.50149C19.768 5.47904 19.4375 5.50307 19.1152 5.57473C18.9542 5.61052 18.7952 5.65796 18.6396 5.71731C18.4323 5.79644 18.2311 5.89696 18.0391 6.01809C17.991 6.04841 17.9434 6.07986 17.8965 6.11281C17.756 6.21165 17.621 6.32226 17.4932 6.44485C17.4506 6.48566 17.4091 6.52741 17.3691 6.56985C17.289 6.65494 17.2143 6.7435 17.1445 6.83449C17.0749 6.92529 17.0105 7.01891 16.9512 7.11477C16.8918 7.21065 16.8371 7.30857 16.7881 7.40871C16.739 7.50901 16.6959 7.6116 16.6572 7.71535C16.5993 7.87067 16.5522 8.02916 16.5176 8.18996C16.4944 8.29756 16.4766 8.40613 16.4639 8.51516C16.4385 8.7326 16.4338 8.95213 16.4502 9.17043C16.4584 9.27962 16.4726 9.38842 16.4912 9.4966C16.5844 10.0376 16.8082 10.5609 17.1641 11.0161C17.2352 11.1071 17.3119 11.1956 17.3936 11.2808C17.5978 11.4936 17.8228 11.6744 18.0625 11.8228C18.1584 11.8821 18.2563 11.9368 18.3564 11.9859C18.4567 12.035 18.5593 12.078 18.6631 12.1167C18.7666 12.1553 18.8714 12.189 18.9775 12.2173C19.031 12.2316 19.0847 12.2448 19.1387 12.2564C19.3532 12.3025 19.5714 12.328 19.79 12.3325C20.3368 12.3439 20.8861 12.2245 21.3877 11.9741C21.6386 11.8489 21.878 11.6916 22.0986 11.5005C22.1427 11.4623 22.1859 11.4222 22.2285 11.3814C22.3989 11.2179 22.5486 11.0411 22.6777 10.854C22.7421 10.7607 22.8014 10.6649 22.8555 10.5669C22.8827 10.5176 22.909 10.4679 22.9336 10.4175C22.9825 10.3175 23.0258 10.2153 23.0645 10.1118C23.1999 9.74877 23.2724 9.36704 23.2803 8.98391C23.2848 8.76514 23.2677 8.546 23.2305 8.32961C23.2212 8.27574 23.2111 8.22195 23.1992 8.16848C23.1753 8.06094 23.1457 7.95446 23.1113 7.84914C22.9568 7.37588 22.6967 6.92873 22.3291 6.54543C22.1658 6.37518 21.9886 6.22526 21.8018 6.09621C21.5679 5.93474 21.3179 5.80621 21.0586 5.70949C20.7477 5.5935 20.4232 5.52394 20.0957 5.50149Z" fill="url(#paint0_linear_703_51923)"/>
<defs>
<linearGradient id="paint0_linear_703_51923" x1="-1.96323e-07" y1="1.68036" x2="34.1255" y2="15.5826" gradientUnits="userSpaceOnUse">
<stop stop-color="#FF670A"/>
<stop offset="0.3" stop-color="#FF892C"/>
<stop offset="0.45" stop-color="#FF9750"/>
<stop offset="0.5" stop-color="#FF9876"/>
<stop offset="0.8" stop-color="#FFA1B7"/>
<stop offset="1" stop-color="#FFD1E3"/>
</linearGradient>
</defs>
</svg>
