<svg width="27" height="27" viewBox="0 0 27 27" fill="none" xmlns="http://www.w3.org/2000/svg">
<path d="M7.22515e-05 26.6667V10.7656C-0.00744116 8.53385 0.571091 6.62949 1.70862 5.02109C2.83563 3.42126 4.42697 2.16599 6.43906 1.29387C8.40157 0.434627 10.7127 0 13.3048 0C15.912 0 18.2321 0.434627 20.2036 1.29101C22.2232 2.16456 23.8236 3.41697 24.9521 5.01966C26.0896 6.63092 26.6667 8.53242 26.6667 10.6727C26.6667 12.8129 26.0911 14.7158 24.9521 16.3257C23.8251 17.9227 22.2292 19.1779 20.2036 20.0529C18.2261 20.9107 15.9015 21.3439 13.3048 21.3439H13.2507C11.7991 21.3439 10.3881 21.1738 9.04021 20.8535L9.16042 20.8764C8.95305 20.8206 8.71713 20.7892 8.47219 20.7892C7.83806 20.7892 7.25502 21.0022 6.79971 21.3568L6.80422 21.3539L6.80872 21.3511L7.22515e-05 26.6667Z" fill="url(#paint0_linear_780_3527)"/>
<defs>
<linearGradient id="paint0_linear_780_3527" x1="-1.80694e-07" y1="1.5873" x2="31.6369" y2="14.1451" gradientUnits="userSpaceOnUse">
<stop stop-color="#FF670A"/>
<stop offset="0.3" stop-color="#FF892C"/>
<stop offset="0.45" stop-color="#FF9750"/>
<stop offset="0.5" stop-color="#FF9876"/>
<stop offset="0.8" stop-color="#FFA1B7"/>
<stop offset="1" stop-color="#FFD1E3"/>
</linearGradient>
</defs>
</svg>
