<svg width="27" height="24" viewBox="0 0 27 24" fill="none" xmlns="http://www.w3.org/2000/svg">
<path d="M8 21.6001H18.6667V24.0001H8V21.6001Z" fill="url(#paint0_linear_780_402)"/>
<path fill-rule="evenodd" clip-rule="evenodd" d="M13.3333 0C24.9912 4.31937e-08 26.6667 0.594212 26.6667 9.60026C26.6666 18.6061 24.9911 19.2005 13.3333 19.2005C1.67553 19.2005 2.58655e-05 18.6061 0 9.60026C0 0.594212 1.67544 0 13.3333 0ZM13.3333 10.6667C11.4382 10.6667 10.2409 10.9863 9.54687 11.694C8.8498 12.4051 8.79298 13.3817 8.79297 14.2812V14.7812H17.875V14.2812C17.875 13.3815 17.817 12.405 17.1198 11.694C16.4257 10.9864 15.2283 10.6667 13.3333 10.6667ZM13.3333 4C11.8607 4.00016 10.6667 5.19402 10.6667 6.66667C10.6667 8.13933 11.8607 9.33318 13.3333 9.33333C14.8061 9.33333 16 8.13943 16 6.66667C16 5.19393 14.8061 4 13.3333 4Z" fill="url(#paint1_linear_780_402)"/>
<defs>
<linearGradient id="paint0_linear_780_402" x1="-1.80694e-07" y1="1.42858" x2="30.6581" y2="14.95" gradientUnits="userSpaceOnUse">
<stop stop-color="#FF670A"/>
<stop offset="0.3" stop-color="#FF892C"/>
<stop offset="0.45" stop-color="#FF9750"/>
<stop offset="0.5" stop-color="#FF9876"/>
<stop offset="0.8" stop-color="#FFA1B7"/>
<stop offset="1" stop-color="#FFD1E3"/>
</linearGradient>
<linearGradient id="paint1_linear_780_402" x1="-1.80694e-07" y1="1.42858" x2="30.6581" y2="14.95" gradientUnits="userSpaceOnUse">
<stop stop-color="#FF670A"/>
<stop offset="0.3" stop-color="#FF892C"/>
<stop offset="0.45" stop-color="#FF9750"/>
<stop offset="0.5" stop-color="#FF9876"/>
<stop offset="0.8" stop-color="#FFA1B7"/>
<stop offset="1" stop-color="#FFD1E3"/>
</linearGradient>
</defs>
</svg>
